<svg width="73" height="21" viewBox="0 0 73 21" fill="none" xmlns="http://www.w3.org/2000/svg">
<path d="M55.9131 0.400391H65.44C69.3031 0.400391 72.4348 3.53204 72.4348 7.39514V16.4809H68.5218V7.39514C68.5218 7.30206 68.5181 7.20964 68.511 7.11805L58.984 16.4794C59.0161 16.4804 59.0484 16.4809 59.0807 16.4809H68.5218V20.1766H59.0807C55.2176 20.1766 52 17.0143 52 13.1512V4.08962H55.9131V13.1512C55.9131 13.3257 55.9266 13.4981 55.9528 13.6672L65.6894 4.09989C65.6073 4.09309 65.5242 4.08962 65.44 4.08962H55.9131V0.400391Z" fill="black"/>
<path d="M22.9969 4V20H19.1297V4H22.9969ZM24.7646 20V4H31.4365C32.6344 4 33.637 4.16927 34.4443 4.50781C35.2568 4.84635 35.8662 5.32031 36.2725 5.92969C36.6839 6.53906 36.8896 7.24479 36.8896 8.04687C36.8896 8.65625 36.762 9.20052 36.5068 9.67969C36.2516 10.1536 35.9001 10.5469 35.4521 10.8594C35.0042 11.1719 34.486 11.3906 33.8975 11.5156V11.6719C34.5433 11.7031 35.1396 11.8776 35.6865 12.1953C36.2386 12.513 36.6813 12.9557 37.0146 13.5234C37.348 14.0859 37.5146 14.7526 37.5146 15.5234C37.5146 16.3828 37.2959 17.151 36.8584 17.8281C36.4209 18.5 35.7881 19.0312 34.96 19.4219C34.1318 19.8073 33.1266 20 31.9443 20H24.7646ZM28.6318 16.8828H31.0225C31.861 16.8828 32.4782 16.724 32.874 16.4062C33.2751 16.0885 33.4756 15.6458 33.4756 15.0781C33.4756 14.6667 33.3792 14.3125 33.1865 14.0156C32.9938 13.7135 32.7204 13.4818 32.3662 13.3203C32.012 13.1536 31.5876 13.0703 31.0928 13.0703H28.6318V16.8828ZM28.6318 10.5781H30.7725C31.1943 10.5781 31.5693 10.5078 31.8975 10.3672C32.2256 10.2266 32.4808 10.0234 32.6631 9.75781C32.8506 9.49219 32.9443 9.17187 32.9443 8.79687C32.9443 8.26042 32.7542 7.83854 32.374 7.53125C31.9938 7.22396 31.4808 7.07031 30.835 7.07031H28.6318V10.5781ZM38.714 20V4H49.8703V7.14062H42.5812V10.4219H49.3V13.5703H42.5812V16.8594H49.8703V20H38.714Z" fill="black"/>
<path d="M13.7688 19.408L0 4H5.53933L13.6231 13.0461V4H17.7535V17.887C17.7535 19.9829 15.1654 20.9708 13.7688 19.408Z" fill="black"/>
</svg>
